<?xml version="1.0" encoding="UTF-8" standalone="no"?>
<!-- Generator: Adobe Illustrator 17.1.0, SVG Export Plug-In . SVG Version: 6.00 Build 0)  -->

<svg
   xmlns:dc="http://purl.org/dc/elements/1.1/"
   xmlns:cc="http://creativecommons.org/ns#"
   xmlns:rdf="http://www.w3.org/1999/02/22-rdf-syntax-ns#"
   xmlns:svg="http://www.w3.org/2000/svg"
   xmlns="http://www.w3.org/2000/svg"
   xmlns:sodipodi="http://sodipodi.sourceforge.net/DTD/sodipodi-0.dtd"
   xmlns:inkscape="http://www.inkscape.org/namespaces/inkscape"
   version="1.1"
   id="圖層_1"
   x="0px"
   y="0px"
   viewBox="0 0 150.10001 42.625988"
   enable-background="new 0 0 150 150"
   xml:space="preserve"
   inkscape:version="0.91 r13725"
   sodipodi:docname="sitcon_wow.svg"
   width="150.10001"
   height="42.625988"><metadata
     id="metadata3516"><rdf:RDF><cc:Work
         rdf:about=""><dc:format>image/svg+xml</dc:format><dc:type
           rdf:resource="http://purl.org/dc/dcmitype/StillImage" /><dc:title></dc:title></cc:Work></rdf:RDF></metadata><defs
     id="defs3514" /><sodipodi:namedview
     pagecolor="#ffffff"
     bordercolor="#666666"
     borderopacity="1"
     objecttolerance="10"
     gridtolerance="10"
     guidetolerance="10"
     inkscape:pageopacity="0"
     inkscape:pageshadow="2"
     inkscape:window-width="1920"
     inkscape:window-height="1053"
     id="namedview3512"
     showgrid="false"
     fit-margin-top="0"
     fit-margin-left="0"
     fit-margin-right="0"
     fit-margin-bottom="0"
     inkscape:zoom="1.5733333"
     inkscape:cx="76.271186"
     inkscape:cy="21.3"
     inkscape:window-x="0"
     inkscape:window-y="27"
     inkscape:window-maximized="1"
     inkscape:current-layer="圖層_1" /><g
     id="g3490"
     transform="translate(0,-53.674013)"><path
       d="m 19.1,76.1 c -0.4,-3.8 -2.9,-5.7 -7.3,-5.7 -3.9,0 -6.4,1.6 -6.4,4 0,2 1.5,3.3 5.3,4.1 l 4.8,1 c 3.5,0.8 5.2,1.5 6.6,2.7 1.5,1.3 2.4,3.2 2.4,5.3 C 24.5,92.8 20,96 12.9,96 5.2,95.9 0.6,92.3 0,85.6 l 4.4,0 c 0.4,4.4 3.5,6.9 8.6,6.9 4.2,0 7.2,-2 7.2,-4.8 0,-2.1 -1.6,-3.5 -4.7,-4.2 L 8.9,82 C 3.5,80.8 1.1,78.5 1.1,74.8 c 0,-4.9 4.3,-8 11,-8 6.7,0 10.3,3 11.3,9.2 l -4.3,0 z"
       id="path3492"
       inkscape:connector-curvature="0"
       style="fill:#77b55a" /><path
       d="m 34.1,95.3 -4.2,0 0,-27.8 4.2,0 0,27.8 z"
       id="path3494"
       inkscape:connector-curvature="0"
       style="fill:#77b55a" /><path
       d="m 51.6,95.3 -4.2,0 0,-24.4 -9.2,0 0,-3.5 22.5,0 0,3.5 -9.2,0 0,24.4 z"
       id="path3496"
       inkscape:connector-curvature="0"
       style="fill:#77b55a" /><path
       d="m 84.2,76.2 c -0.9,-3.7 -3.8,-5.9 -7.9,-5.9 -5.6,0 -9.3,4.3 -9.3,10.9 0,6.7 3.7,11.3 9.2,11.3 4.6,0 7.7,-2.9 8.4,-7.8 l 4.2,0 c -0.4,2.8 -1,4.5 -2.5,6.5 -2.4,3.2 -5.8,4.8 -10.2,4.8 -4.4,0 -7.8,-1.6 -10.3,-4.8 -2.1,-2.7 -3.2,-6.1 -3.2,-9.9 0,-8.5 5.7,-14.4 13.7,-14.4 6.3,0 10.7,3.3 12,9 l -4.1,0.3 z"
       id="path3498"
       inkscape:connector-curvature="0"
       style="fill:#77b55a" /><path
       d="m 145.8,95.3 -12,-17.6 c -1.5,-2.2 -2.3,-3.5 -3,-4.8 0.1,1.3 0.1,3.9 0.1,5.3 l 0,17.1 -4,0 0,-27.8 4.3,0 11.5,17 c 1.1,1.6 2.6,4.1 3.5,5.8 -0.1,-1.5 -0.1,-3.3 -0.1,-5.2 l 0,-17.5 4,0 0,27.7 -4.3,0 z"
       id="path3500"
       inkscape:connector-curvature="0"
       style="fill:#77b55a" /><g
       id="g3502"><path
         d="m 112.6,55 c 2.5,-1.9 5.4,-1.2 5.4,-1.2 0,0 -0.5,3.5 -3,5.4 -2.5,1.9 -6,1.4 -6,1.4 0,0 0.8,-1.2 1.5,-2.7 0.5,-0.8 1.2,-2.2 2.1,-2.9 z"
         id="path3504"
         inkscape:connector-curvature="0"
         style="fill:#77b55a" /><path
         d="m 106.6,57.9 c -1.2,-0.9 -2.5,-0.6 -2.5,-0.6 0,0 0.2,1.6 1.4,2.5 1.2,0.9 2.8,0.7 2.8,0.7 0,0 -0.4,-0.5 -0.7,-1.2 -0.2,-0.4 -0.5,-1.1 -1,-1.4 z"
         id="path3506"
         inkscape:connector-curvature="0"
         style="fill:#77b55a" /><path
         d="m 106.9,66.3 c 0.3,0 0.7,0 1,0 -0.3,-1.8 -0.2,-3.7 0.7,-5.3 -1.6,1.3 -2.4,3.3 -2.8,5.3 0.4,0 0.8,0 1.1,0 z"
         id="path3508"
         inkscape:connector-curvature="0"
         style="fill:#77b55a" /><path
         d="m 106.9,66.9 c -8.1,0 -14.7,6.6 -14.7,14.7 0,8.1 6.6,14.7 14.7,14.7 8.1,0 14.7,-6.6 14.7,-14.7 0,-8.1 -6.5,-14.7 -14.7,-14.7 z m 6,20.7 -6,-4.1 -6,4.1 4.1,-6 -4.1,-6 6,4.1 6,-4.1 -4.1,6 4.1,6 z"
         id="path3510"
         inkscape:connector-curvature="0"
         style="fill:#77b55a" /></g></g></svg>